<svg width="114" height="109" viewBox="0 0 114 109" fill="none" xmlns="http://www.w3.org/2000/svg">
<path d="M39.6054 82.0719L39.5146 82.2285L39.4001 82.0295L39.4001 82.0295L39.3959 82.0223C39.0165 81.3715 38.395 80.8974 37.6671 80.7036C36.9392 80.5098 36.1642 80.612 35.5114 80.9879L35.5114 80.9878L35.5035 80.9925C34.8605 81.368 34.39 81.9804 34.1927 82.6985C33.9954 83.4165 34.087 84.1833 34.4479 84.8347L34.4537 84.8451L34.4596 84.8553L34.5874 85.0777H34.35C33.5941 85.0777 32.8692 85.378 32.3347 85.9125C31.8003 86.4469 31.5 87.1719 31.5 87.9277C31.5 88.6836 31.8003 89.4085 32.3347 89.943C32.8692 90.4775 33.5941 90.7777 34.35 90.7777H34.5769L34.4622 90.9755L34.4601 90.9792C34.0842 91.6319 33.982 92.4069 34.1759 93.1348C34.3697 93.8627 34.8438 94.4843 35.4946 94.8636L35.5049 94.8696L35.5152 94.8754C36.1575 95.2363 36.9133 95.3383 37.6282 95.1605C38.3431 94.9827 38.9632 94.5387 39.3616 93.919L39.3838 93.8846L39.404 93.8491L39.5146 93.6545L39.6283 93.8531L39.6283 93.8531L39.6307 93.8573C39.8178 94.1816 40.0669 94.4658 40.3638 94.6938C40.6608 94.9218 40.9997 95.0891 41.3613 95.1861C41.7229 95.2831 42.1 95.3079 42.4712 95.2592C42.8424 95.2105 43.2003 95.0891 43.5246 94.902C43.8489 94.7149 44.1331 94.4658 44.3611 94.1689C44.5891 93.8719 44.7564 93.533 44.8534 93.1714C44.9504 92.8099 44.9752 92.4327 44.9265 92.0615C44.8778 91.6912 44.7569 91.3341 44.5706 91.0104C44.5702 91.0097 44.5697 91.0089 44.5693 91.0081L44.4374 90.7777H44.68C45.4359 90.7777 46.1608 90.4775 46.6953 89.943C47.2297 89.4085 47.53 88.6836 47.53 87.9277C47.53 87.1719 47.2297 86.4469 46.6953 85.9125C46.1608 85.378 45.4359 85.0777 44.68 85.0777H44.4426L44.5478 84.8947C44.7488 84.583 44.8871 84.235 44.9549 83.8699C45.0266 83.4833 45.0176 83.086 44.9283 82.703C44.839 82.32 44.6715 81.9597 44.4361 81.6446C44.2008 81.3295 43.9029 81.0666 43.561 80.8723C43.2191 80.6779 42.8407 80.5565 42.4496 80.5155C42.0585 80.4745 41.6632 80.515 41.2884 80.6342C40.9137 80.7535 40.5677 80.949 40.2722 81.2084C39.9962 81.4508 39.7699 81.744 39.6054 82.0719Z" fill="#91AAD0" stroke="white" stroke-width="3"/>
<mask id="mask0_1_192" style="mask-type:luminance" maskUnits="userSpaceOnUse" x="7" y="4" width="100" height="101">
<path d="M7.5 4.5H106.5V103.5H7.5V4.5Z" fill="white" stroke="white"/>
<path d="M65.7 27C61.2873 26.9981 56.9599 28.2159 53.1958 30.5188C49.4317 32.8218 46.3773 36.1203 44.37 40.05C41.937 39.1049 39.2293 39.1589 36.8359 40.2001C34.4425 41.2414 32.5571 43.1857 31.59 45.61C31.0224 45.5441 30.4514 45.5107 29.88 45.51C27.8894 45.5023 25.9177 45.8959 24.0827 46.6673C22.2477 47.4388 20.5871 48.5723 19.2 50C16.53 52.7143 15.0233 56.3626 15 60.17V60.38C15.0396 64.2958 16.6263 68.037 19.414 70.7872C22.2017 73.5374 25.964 75.0734 29.88 75.06H85.59C89.0748 75.0778 92.4461 73.8224 95.0706 71.5298C97.6951 69.2372 99.3921 66.0651 99.8428 62.6095C100.293 59.154 99.4668 55.6527 97.5181 52.7637C95.5694 49.8746 92.6328 47.7966 89.26 46.92C88.3139 41.3539 85.4302 36.3016 81.1188 32.6563C76.8074 29.011 71.3459 27.0075 65.7 27Z" fill="black" stroke="white" stroke-width="10" stroke-linejoin="round"/>
<path d="M63.6 78.42L56.74 75.39L59.55 60L49 79.49L56.08 82.51L51.49 100L63.6 78.42Z" fill="#FFDD15" stroke="white" stroke-width="8" stroke-linejoin="round"/>
</mask>
<g mask="url(#mask0_1_192)">
</g>
<mask id="mask1_1_192" style="mask-type:luminance" maskUnits="userSpaceOnUse" x="7" y="4" width="100" height="100">
<path d="M7.5 4.5H106.5V103.5H7.5V4.5Z" fill="white" stroke="white"/>
</mask>
<g mask="url(#mask1_1_192)">
<path d="M53.0363 38.1324L51.3456 38.8875L52.4352 40.3846L57.3847 47.1859L48.9966 46.3396L47.1667 46.1549L47.3538 47.9846L48.2112 56.3678L41.3577 51.4309L39.8603 50.3522L39.1104 52.0385L35.697 59.7149L32.2676 52.0363L31.5128 50.3462L30.0158 51.4349L23.2091 56.3847L24.0603 47.9975L24.2467 46.161L22.411 46.3542L14.0323 47.2362L18.9706 40.3556L20.0448 38.8589L18.3615 38.1104L10.6851 34.697L18.3637 31.2676L20.0538 30.5128L18.9651 29.0158L14.0153 22.2091L22.4025 23.0603L24.239 23.2467L24.0458 21.411L23.1646 13.04L30.0073 17.9691L31.5006 19.0448L32.2529 17.3652L35.698 9.67388L39.1324 17.3637L39.8872 19.0538L41.3842 17.9651L48.1909 13.0153L47.3397 21.4025L47.1533 23.239L48.989 23.0458L57.36 22.1646L52.4309 29.0073L51.3552 30.5006L53.0348 31.2529L60.7261 34.698L53.0363 38.1324Z" fill="#FFC700" stroke="white" stroke-width="3"/>
</g>
<path d="M65.7006 25.5L65.702 25.5C71.7018 25.5079 77.5056 27.637 82.0873 31.5108C86.4278 35.1807 89.4066 40.1925 90.563 45.7392C93.8996 46.8276 96.7888 49.0001 98.7616 51.9249C100.915 55.117 101.828 58.9855 101.33 62.8035C100.832 66.6216 98.9572 70.1264 96.0574 72.6595C93.1586 75.1917 89.4352 76.5787 85.5862 76.56H29.8829C25.5716 76.5742 21.4297 74.8829 18.3606 71.855C15.2909 68.8266 13.5437 64.707 13.5001 60.3952L13.5 60.3876V60.38V60.17V60.1608C13.5257 55.9647 15.1856 51.9437 18.1274 48.9515C19.6543 47.3807 21.482 46.1336 23.5014 45.2846C25.5217 44.4352 27.6924 44.0017 29.8839 44.01C29.8845 44.01 29.8852 44.01 29.8858 44.01L29.88 45.51C30.4514 45.5107 31.0224 45.5441 31.59 45.61L65.7006 25.5ZM65.7006 25.5C61.0114 25.498 56.4129 26.7921 52.4129 29.2393C48.7776 31.4635 45.7652 34.5615 43.645 38.2427C41.1925 37.6071 38.5838 37.8039 36.2375 38.8247C33.8275 39.8731 31.8649 41.7167 30.6654 44.0296L65.7006 25.5Z" fill="white" stroke="white" stroke-width="3"/>
<path d="M65.7 27C61.2873 26.9981 56.9599 28.2159 53.1958 30.5188C49.4317 32.8218 46.3773 36.1203 44.37 40.05C41.937 39.1049 39.2293 39.1589 36.8359 40.2001C34.4425 41.2414 32.5571 43.1857 31.59 45.61C31.0224 45.5441 30.4514 45.5107 29.88 45.51C27.8894 45.5023 25.9177 45.8959 24.0827 46.6673C22.2477 47.4388 20.5871 48.5723 19.2 50C16.53 52.7143 15.0233 56.3626 15 60.17V60.38C15.0396 64.2958 16.6263 68.037 19.414 70.7872C22.2017 73.5374 25.964 75.0734 29.88 75.06H85.59C89.0748 75.0778 92.4461 73.8224 95.0706 71.5298C97.6951 69.2372 99.3921 66.0651 99.8428 62.6095C100.293 59.154 99.4668 55.6527 97.5181 52.7637C95.5694 49.8746 92.6328 47.7966 89.26 46.92C88.3139 41.3539 85.4302 36.3016 81.1188 32.6563C76.8074 29.011 71.3459 27.0075 65.7 27Z" fill="#91AAD0"/>
<path d="M65.7 27C61.2873 26.9981 56.9599 28.2159 53.1958 30.5188C49.4317 32.8218 46.3773 36.1203 44.37 40.05C41.937 39.1049 39.2293 39.1589 36.8359 40.2001C34.4425 41.2414 32.5571 43.1857 31.59 45.61C31.0224 45.5441 30.4514 45.5107 29.88 45.51C27.8894 45.5023 25.9177 45.8959 24.0827 46.6673C22.2477 47.4388 20.5871 48.5723 19.2 50C16.53 52.7143 15.0233 56.3626 15 60.17V60.38C15.0396 64.2958 16.6263 68.037 19.414 70.7872C22.2017 73.5374 25.964 75.0734 29.88 75.06H85.59C89.0748 75.0778 92.4461 73.8224 95.0706 71.5298C97.6951 69.2372 99.3921 66.0651 99.8428 62.6095C100.293 59.154 99.4668 55.6527 97.5181 52.7637C95.5694 49.8746 92.6328 47.7966 89.26 46.92C88.3139 41.3539 85.4302 36.3016 81.1188 32.6563C76.8074 29.011 71.3459 27.0075 65.7 27Z" stroke="#BCBCBC"/>
<path d="M65.7 27C61.2873 26.9981 56.9599 28.2159 53.1958 30.5188C49.4317 32.8218 46.3773 36.1203 44.37 40.05C41.937 39.1049 39.2293 39.1589 36.8359 40.2001C34.4425 41.2414 32.5571 43.1857 31.59 45.61C31.0224 45.5441 30.4514 45.5107 29.88 45.51C27.8894 45.5023 25.9177 45.8959 24.0827 46.6673C22.2477 47.4388 20.5871 48.5723 19.2 50C16.53 52.7143 15.0233 56.3626 15 60.17V60.38C15.0396 64.2958 16.6263 68.037 19.414 70.7872C22.2017 73.5374 25.964 75.0734 29.88 75.06H85.59C89.0748 75.0778 92.4461 73.8224 95.0706 71.5298C97.6951 69.2372 99.3921 66.0651 99.8428 62.6095C100.293 59.154 99.4668 55.6527 97.5181 52.7637C95.5694 49.8746 92.6328 47.7966 89.26 46.92C88.3139 41.3539 85.4302 36.3016 81.1188 32.6563C76.8074 29.011 71.3459 27.0075 65.7 27Z" stroke="white"/>
<path d="M65.9081 70.1541C66.115 69.7854 66.1567 69.3467 66.023 68.9457C65.8894 68.5447 65.5927 68.2187 65.2061 68.0479L59.4281 65.4958L62.0256 51.2694C62.1581 50.544 61.7436 49.8298 61.0479 49.5851C60.3523 49.3403 59.5819 49.6374 59.2309 50.2859L48.6809 69.7759C48.48 70.1471 48.4447 70.5857 48.5837 70.9842C48.7228 71.3827 49.0233 71.7041 49.4115 71.8697L55.3004 74.3817L51.0391 90.6192C50.8475 91.3493 51.2282 92.108 51.928 92.3908C52.6278 92.6735 53.4287 92.3923 53.7981 91.7341L65.9081 70.1541Z" fill="#FFC700" stroke="white" stroke-width="3" stroke-linejoin="round"/>
<path d="M75.491 96.3346V96.3346L75.4985 96.3346C76.272 96.3325 77.0282 96.1061 77.6757 95.683C78.3227 95.2602 78.8333 94.6589 79.1459 93.952C79.1461 93.9516 79.1463 93.9511 79.1465 93.9506L82.6954 85.953L82.7177 85.9029L82.7362 85.8514C83.0787 84.8971 83.0461 83.8483 82.6449 82.9172C82.2437 81.9861 81.5039 81.242 80.5751 80.8356C79.6462 80.4291 78.5977 80.3905 77.6415 80.7275C76.6853 81.0646 75.8928 81.7522 75.4242 82.6514L75.4024 82.6931L75.3833 82.7362L71.8333 90.7362L71.8301 90.7434L71.827 90.7506C71.5649 91.3584 71.4577 92.0218 71.515 92.6812C71.5724 93.3407 71.7925 93.9756 72.1557 94.529C72.5188 95.0825 73.0136 95.5371 73.5957 95.8522C74.1778 96.1674 74.8291 96.3331 75.491 96.3346Z" fill="#91AAD0" stroke="white" stroke-width="3"/>
<path d="M59.491 106.335V106.335L59.4985 106.335C60.272 106.332 61.0282 106.106 61.6757 105.683C62.3227 105.26 62.8333 104.659 63.1459 103.952C63.1461 103.952 63.1463 103.951 63.1465 103.951L66.6954 95.953L66.7177 95.9029L66.7362 95.8514C67.0787 94.8971 67.0461 93.8483 66.6449 92.9172C66.2437 91.9861 65.5039 91.242 64.5751 90.8356C63.6462 90.4291 62.5977 90.3905 61.6415 90.7275C60.6853 91.0646 59.8928 91.7522 59.4242 92.6514L59.4024 92.6931L59.3833 92.7362L55.8333 100.736L55.8301 100.743L55.827 100.751C55.5649 101.358 55.4577 102.022 55.515 102.681C55.5724 103.341 55.7925 103.976 56.1557 104.529C56.5188 105.082 57.0136 105.537 57.5957 105.852C58.1778 106.167 58.8291 106.333 59.491 106.335Z" fill="#91AAD0" stroke="white" stroke-width="3"/>
</svg>
