<svg width="114" height="109" viewBox="0 0 114 109" fill="none" xmlns="http://www.w3.org/2000/svg">
<path d="M31.4333 76.5291L30.6689 77.9086L29.8853 76.4845L29.8853 76.4845L29.8813 76.4773C29.4264 75.6611 28.6689 75.0464 27.7579 74.7927C26.8447 74.5383 25.8746 74.6745 25.0656 75.1618L25.0656 75.1618L25.0576 75.1667C24.2636 75.6517 23.7008 76.4302 23.467 77.3204C23.2334 78.2097 23.3404 79.1605 23.7718 79.9749L23.7772 79.9851L23.7828 79.9952L24.6692 81.6079H23.0041C22.0525 81.6079 21.1542 82.0039 20.5028 82.6853C19.8536 83.3643 19.5 84.2715 19.5 85.2041C19.5 86.1366 19.8536 87.0438 20.5028 87.7229C21.1542 88.4042 22.0525 88.8002 23.0041 88.8002H24.6592L23.7853 90.3773L23.7833 90.3809C23.3337 91.1976 23.2143 92.1589 23.4438 93.06C23.6735 93.9621 24.2403 94.7522 25.0438 95.2421L25.0542 95.2484L25.0647 95.2546C25.8632 95.7238 26.8116 95.8598 27.7109 95.626C28.6085 95.3925 29.3683 94.8145 29.8489 94.0328L29.8698 93.9987L29.8889 93.9635L30.6689 92.5287L31.4565 93.9674L31.4588 93.9716C31.6833 94.3785 31.9846 94.7397 32.3487 95.0321C32.7129 95.3246 33.1325 95.5422 33.5843 95.669C34.0362 95.7958 34.5089 95.8285 34.9744 95.7646C35.4397 95.7006 35.8855 95.5418 36.2862 95.3C36.6867 95.0583 37.0333 94.7392 37.3088 94.364C37.5841 93.9889 37.7836 93.5643 37.8988 93.1152C38.014 92.6662 38.0433 92.1988 37.9856 91.7391C37.928 91.2802 37.7845 90.8351 37.5609 90.429C37.5604 90.4281 37.5599 90.4273 37.5595 90.4265L36.6692 88.8002H38.3392C39.2909 88.8002 40.1891 88.4042 40.8405 87.7229C41.4898 87.0438 41.8433 86.1366 41.8433 85.2041C41.8433 84.2715 41.4898 83.3643 40.8405 82.6853C40.1891 82.0039 39.2909 81.6079 38.3392 81.6079H36.6742L37.5378 80.0366C37.7853 79.6402 37.9534 79.1996 38.0348 78.7406C38.1198 78.2613 38.1092 77.7692 38.0033 77.294C37.8973 76.8188 37.6978 76.3678 37.4138 75.9702C37.1298 75.5724 36.7666 75.2356 36.3442 74.9844C35.9216 74.7332 35.4501 74.5741 34.9596 74.5203C34.4689 74.4666 33.9736 74.5198 33.5059 74.6755C33.0384 74.8311 32.6115 75.0847 32.2504 75.4163C31.9074 75.7313 31.6309 76.1101 31.4333 76.5291Z" fill="#91AAD0" stroke="white" stroke-width="3"/>
<mask id="mask0_1_192" style="mask-type:luminance" maskUnits="userSpaceOnUse" x="9" y="1" width="96" height="96">
<path d="M9.5 1.5H103.692V95.6923H9.5V1.5Z" fill="white" stroke="white"/>
<path d="M64.8779 22.8942C60.6773 22.8924 56.558 24.0517 52.9748 26.2439C49.3917 28.4361 46.4842 31.576 44.5734 35.3168C42.2574 34.4172 39.6798 34.4685 37.4015 35.4597C35.1231 36.4509 33.3284 38.3018 32.4078 40.6095C31.8675 40.5468 31.324 40.515 30.78 40.5143C28.8851 40.507 27.0082 40.8817 25.2615 41.616C23.5147 42.3504 21.9338 43.4294 20.6135 44.7885C18.0718 47.3723 16.6376 50.8452 16.6154 54.4695V54.6694C16.6531 58.3969 18.1635 61.9583 20.8172 64.5763C23.4709 67.1943 27.0523 68.6564 30.78 68.6437H83.8116C87.1289 68.6606 90.3381 67.4656 92.8365 65.2832C95.3348 63.1008 96.9502 60.0812 97.3792 56.7918C97.8082 53.5023 97.0213 50.1694 95.1663 47.4193C93.3112 44.6691 90.5158 42.691 87.3052 41.8565C86.4046 36.558 83.6595 31.7486 79.5554 28.2786C75.4513 24.8085 70.2524 22.9013 64.8779 22.8942Z" fill="black" stroke="white" stroke-width="10" stroke-linejoin="round"/>
<path d="M62.8789 71.8421L56.3487 68.9578L59.0236 54.3077L48.9808 72.8607L55.7204 75.7355L51.3511 92.3846L62.8789 71.8421Z" fill="#FFDD15" stroke="white" stroke-width="8" stroke-linejoin="round"/>
</mask>
<g mask="url(#mask0_1_192)">
</g>
<mask id="mask1_1_192" style="mask-type:luminance" maskUnits="userSpaceOnUse" x="6" y="-2" width="102" height="102">
<path d="M9 -0.5H7.5V1V96.1923V97.6923H9H104.192H105.692V96.1923V1V-0.5H104.192H9Z" fill="white" stroke="white" stroke-width="3"/>
</mask>
<g mask="url(#mask1_1_192)">
<path d="M57.3207 32.959L55.572 33.7148L56.717 35.2374L61.7854 41.9774L53.1242 41.1317L51.2934 40.9529L51.4867 42.7822L52.3722 51.1615L45.2352 46.1862L43.7635 45.1602L43.0144 46.7904L39.4586 54.5292L35.886 46.7882L35.1321 45.1546L33.6608 46.19L26.5716 51.179L27.4509 42.795L27.6434 40.9592L25.8071 41.1462L17.1547 42.0276L22.2121 35.2085L23.341 33.6863L21.6002 32.9371L13.7398 29.5547L21.6024 26.1564L23.3505 25.4009L22.2064 23.8784L17.1376 17.133L25.7981 17.9836L27.6356 18.1641L27.4359 16.3286L26.5258 7.96151L33.6519 12.9292L35.1195 13.9523L35.871 12.3287L39.4596 4.5754L43.0371 12.3272L43.791 13.9608L45.2623 12.9254L52.3515 7.93638L51.4722 16.3204L51.2796 18.1562L53.116 17.9692L61.7604 17.0886L56.7126 23.8699L55.582 25.3888L57.3193 26.1418L65.195 29.5557L57.3207 32.959Z" fill="#FFC700" stroke="white" stroke-width="3"/>
</g>
<path d="M30.7839 39.0143C28.6881 39.0064 26.6122 39.421 24.6801 40.2333C22.7489 41.0452 21.001 42.2378 19.5408 43.7399C16.7275 46.6017 15.14 50.4472 15.1154 54.4603H15.1154V54.4695V54.6694V54.677L15.1155 54.6846C15.1572 58.8082 16.8281 62.7479 19.7638 65.6441C22.6988 68.5397 26.6599 70.1572 30.7829 70.1437H83.8078C87.4893 70.1615 91.0506 68.8349 93.8233 66.4128C96.5969 63.99 98.3903 60.6376 98.8666 56.9857C99.3429 53.3338 98.4692 49.6337 96.4098 46.5805C94.5307 43.7945 91.7823 41.7222 88.6076 40.677C87.4974 35.3975 84.6574 30.628 80.5239 27.1331C76.1495 23.4346 70.6083 21.4018 64.8799 21.3942L64.8785 21.3942C60.4015 21.3923 56.011 22.6278 52.192 24.9644C48.7368 27.0783 45.871 30.0191 43.8481 33.5129C41.5135 32.9204 39.0345 33.1135 36.803 34.0843C34.508 35.0827 32.6363 36.8337 31.485 39.0309C31.2515 39.0202 31.0177 39.0147 30.7839 39.0143ZM30.7839 39.0143C30.7845 39.0143 30.7852 39.0143 30.7858 39.0143L30.78 40.5143L30.7819 39.0143C30.7826 39.0143 30.7832 39.0143 30.7839 39.0143Z" fill="white" stroke="white" stroke-width="3"/>
<path d="M64.8779 22.8942C60.6773 22.8924 56.558 24.0517 52.9748 26.2439C49.3917 28.4361 46.4842 31.576 44.5734 35.3168C42.2574 34.4172 39.6798 34.4685 37.4015 35.4597C35.1231 36.4509 33.3284 38.3018 32.4078 40.6095C31.8675 40.5468 31.324 40.515 30.78 40.5143C28.8851 40.507 27.0082 40.8817 25.2615 41.616C23.5147 42.3504 21.9338 43.4294 20.6135 44.7885C18.0718 47.3723 16.6376 50.8452 16.6154 54.4695V54.6694C16.6531 58.3969 18.1635 61.9583 20.8172 64.5763C23.4709 67.1943 27.0523 68.6564 30.78 68.6437H83.8116C87.1289 68.6606 90.3381 67.4656 92.8365 65.2832C95.3348 63.1008 96.9502 60.0812 97.3792 56.7918C97.8082 53.5023 97.0213 50.1694 95.1663 47.4193C93.3112 44.6691 90.5158 42.691 87.3052 41.8565C86.4046 36.558 83.6595 31.7486 79.5554 28.2786C75.4513 24.8085 70.2524 22.9013 64.8779 22.8942Z" fill="#91AAD0"/>
<path d="M64.8779 22.8942C60.6773 22.8924 56.558 24.0517 52.9748 26.2439C49.3917 28.4361 46.4842 31.576 44.5734 35.3168C42.2574 34.4172 39.6798 34.4685 37.4015 35.4597C35.1231 36.4509 33.3284 38.3018 32.4078 40.6095C31.8675 40.5468 31.324 40.515 30.78 40.5143C28.8851 40.507 27.0082 40.8817 25.2615 41.616C23.5147 42.3504 21.9338 43.4294 20.6135 44.7885C18.0718 47.3723 16.6376 50.8452 16.6154 54.4695V54.6694C16.6531 58.3969 18.1635 61.9583 20.8172 64.5763C23.4709 67.1943 27.0523 68.6564 30.78 68.6437H83.8116C87.1289 68.6606 90.3381 67.4656 92.8365 65.2832C95.3348 63.1008 96.9502 60.0812 97.3792 56.7918C97.8082 53.5023 97.0213 50.1694 95.1663 47.4193C93.3112 44.6691 90.5158 42.691 87.3052 41.8565C86.4046 36.558 83.6595 31.7486 79.5554 28.2786C75.4513 24.8085 70.2524 22.9013 64.8779 22.8942Z" stroke="#BCBCBC"/>
<path d="M64.8779 22.8942C60.6773 22.8924 56.558 24.0517 52.9748 26.2439C49.3917 28.4361 46.4842 31.576 44.5734 35.3168C42.2574 34.4172 39.6798 34.4685 37.4015 35.4597C35.1231 36.4509 33.3284 38.3018 32.4078 40.6095C31.8675 40.5468 31.324 40.515 30.78 40.5143C28.8851 40.507 27.0082 40.8817 25.2615 41.616C23.5147 42.3504 21.9338 43.4294 20.6135 44.7885C18.0718 47.3723 16.6376 50.8452 16.6154 54.4695V54.6694C16.6531 58.3969 18.1635 61.9583 20.8172 64.5763C23.4709 67.1943 27.0523 68.6564 30.78 68.6437H83.8116C87.1289 68.6606 90.3381 67.4656 92.8365 65.2832C95.3348 63.1008 96.9502 60.0812 97.3792 56.7918C97.8082 53.5023 97.0213 50.1694 95.1663 47.4193C93.3112 44.6691 90.5158 42.691 87.3052 41.8565C86.4046 36.558 83.6595 31.7486 79.5554 28.2786C75.4513 24.8085 70.2524 22.9013 64.8779 22.8942Z" stroke="white"/>
<path d="M64.5213 72.5653C64.7652 72.1859 64.8255 71.717 64.6855 71.2883C64.5454 70.8596 64.22 70.5167 63.7992 70.3545L54.7016 66.8472L58.6544 47.9514C58.8035 47.2388 58.4194 46.5221 57.7435 46.2516C57.0677 45.9811 56.2951 46.235 55.9115 46.8537L40.0906 72.364C39.8536 72.7462 39.8006 73.2146 39.9461 73.6401C40.0917 74.0656 40.4205 74.4034 40.842 74.5603L50.1411 78.0224L43.6629 99.5681C43.4476 100.284 43.7926 101.049 44.4717 101.362C45.1509 101.675 45.9567 101.44 46.3611 100.811L64.5213 72.5653Z" fill="#FFC700" stroke="white" stroke-width="3" stroke-linejoin="round"/>
<path d="M71.6362 84.0309L71.6322 84.0376L71.6283 84.0443C71.1994 84.7869 70.9589 85.6242 70.9274 86.4814C70.8959 87.3386 71.0744 88.1911 71.4485 88.9625C71.8226 89.7341 72.3813 90.4013 73.0763 90.9025C73.7714 91.4038 74.5803 91.7227 75.4304 91.829L75.438 91.8299C76.4321 91.9492 77.4382 91.7729 78.3341 91.3249C79.2293 90.8772 79.9748 90.1782 80.4835 89.3154C80.4837 89.315 80.4839 89.3146 80.4842 89.3142L87.0763 78.1699L87.1038 78.1233L87.128 78.0748C87.7131 76.8995 87.8376 75.5449 87.476 74.2829C87.1141 73.0202 86.2907 71.9392 85.1652 71.264C84.039 70.5884 82.6988 70.3725 81.4177 70.6612C80.1372 70.9496 79.0172 71.7189 78.2796 72.8056L78.2534 72.8442L78.2296 72.8844L71.6362 84.0309Z" fill="#91AAD0" stroke="white" stroke-width="3"/>
<path d="M53.1866 93.5451L53.1823 93.552L53.1782 93.5589C52.7437 94.2795 52.5007 95.0973 52.4736 95.9381C52.4465 96.7787 52.6361 97.6108 53.0212 98.3592C53.406 99.1073 53.973 99.7469 54.6667 100.225C55.3603 100.703 56.1611 101.006 56.9976 101.111L57.0048 101.112C57.9826 101.229 58.976 101.071 59.8659 100.652C60.7558 100.233 61.5072 99.5682 62.0222 98.7316C62.0225 98.7312 62.0227 98.7308 62.023 98.7303L68.5427 88.1751L68.5722 88.1272L68.5981 88.0773C69.1922 86.9316 69.3114 85.6051 68.9326 84.3714C68.5544 83.1395 67.7125 82.104 66.5939 81.4611C65.4764 80.8188 64.1553 80.6091 62.8934 80.8724C61.6305 81.1358 60.5069 81.8568 59.7608 82.9073L59.733 82.9466L59.7077 82.9876L53.1866 93.5451Z" fill="#91AAD0" stroke="white" stroke-width="3"/>
</svg>
